<svg viewBox="0 0 1024 1024" xmlns="http://www.w3.org/2000/svg"><path d="M341.333 128C223.7 128 128 223.7 128 341.333v341.334C128 800.3 223.7 896 341.333 896h341.334C800.3 896 896 800.3 896 682.667V341.333C896 223.7 800.3 128 682.667 128H341.333zm0 85.333h341.334c70.57 0 128 57.43 128 128v341.334c0 70.57-57.43 128-128 128H341.333c-70.57 0-128-57.43-128-128V341.333c0-70.57 57.43-128 128-128zm384 42.667a42.667 42.667 0 0 0-42.666 42.667 42.667 42.667 0 0 0 42.666 42.666A42.667 42.667 0 0 0 768 298.667 42.667 42.667 0 0 0 725.333 256zM512 298.667c-117.632 0-213.333 95.7-213.333 213.333 0 117.632 95.7 213.333 213.333 213.333 117.632 0 213.333-95.7 213.333-213.333 0-117.632-95.7-213.333-213.333-213.333zM512 384c70.57 0 128 57.43 128 128s-57.43 128-128 128-128-57.43-128-128 57.43-128 128-128z"/></svg>