<svg viewBox="0 0 1024 1024.0893" xmlns="http://www.w3.org/2000/svg"><path d="M534.4.91C590.293.058 645.76.485 701.227.058c3.413 65.28 26.88 131.84 74.666 177.92 47.787 47.36 115.2 69.12 180.907 76.374v171.947c-61.44-2.133-123.307-14.933-179.2-41.386-24.32-11.093-46.933-25.173-69.12-39.68-.427 124.587.427 249.174-.853 373.334-3.414 59.733-23.04 119.04-57.6 168.107-55.894 81.92-152.747 135.254-252.16 136.96-61.014 3.414-122.027-13.226-174.08-43.946C137.6 928.91 77.013 835.897 68.053 736.057c-.853-21.333-1.28-42.666-.426-63.573 7.68-81.067 47.786-158.72 110.08-211.627 70.826-61.44 169.813-90.88 262.4-73.386.853 63.147-1.707 126.294-1.707 189.44-42.24-13.653-91.733-9.813-128.853 15.787-26.88 17.494-47.36 44.374-58.027 74.667-8.96 21.76-6.4 45.653-5.973 68.693C255.787 806.03 323.2 864.91 394.88 858.51c47.787-.426 93.44-28.16 118.187-68.693 8.106-14.08 17.066-28.586 17.493-45.226 4.267-76.373 2.56-152.32 2.987-228.693.426-171.946-.427-343.466.853-514.986z"/></svg>