<svg viewBox="0 0 1024 1027" xmlns="http://www.w3.org/2000/svg"><path d="M896 273.875c-28.25 12.5-58.625 21-90.5 24.75 32.5-19.5 57.5-50.375 69.25-87.125-30.375 18-64.125 31.125-100 38.25-28.75-30.625-69.75-49.875-115-49.875-87 0-157.625 70.625-157.625 157.625 0 12.375 1.375 24.375 4.125 35.875-131-6.5-247.125-69.25-324.75-164.625-13.625 23.25-21.375 50.375-21.375 79.25 0 54.625 27.75 102.875 70.125 131.125-25.875-.875-50.125-7.875-71.375-19.75v2c0 76.375 54.25 140.125 126.375 154.5-13.25 3.625-27.125 5.625-41.5 5.625-10.125 0-20.125-1-29.625-2.875 20 62.625 78.25 108.125 147.125 109.5-53.875 42.25-121.875 67.375-195.625 67.375-12.75 0-25.25-.75-37.625-2.25 69.75 44.75 152.5 70.875 241.5 70.875 289.875 0 448.375-240.125 448.375-448.375 0-6.75-.25-13.625-.5-20.375 30.75-22.25 57.5-50 78.625-81.5z"/></svg>